# xmcd CD database file
#
# Track frame offsets:
#	150
#	28325
#	47380
#	72717
#	95612
#	116217
#	138187
#	159217
#	182965
#	204022
#	223232
#	246687
#	270002
#	292762
#	313070
#
# Disc length: 4263 seconds
#
# Revision: 6
# Processed by: cddbd v1.5PL3 Copyright (c) Steve Scherf et al.
# Submitted via: CDex 1.50beta9
#
DISCID=df10a50f
DTITLE=Class - class book 〜class 1998 to 1996 best〜
DYEAR=1996
DGENRE=J ポップ
TTITLE0=Slowly but surely
TTITLE1=君だけが知っている
TTITLE2=HALF MOON
TTITLE3=サヨナラがにじむ街
TTITLE4=夏にかかるWedding Song
TTITLE5=百万本の雨
TTITLE6=セピア色の微笑
TTITLE7=永遠の素顔
TTITLE8=Holiday
TTITLE9=もう君を離さない
TTITLE10=Melody
TTITLE11=Rainy Day
TTITLE12=サヨナラ
TTITLE13=夏の日の1993
TTITLE14=プロローグ
EXTD=YEAR: 1996
EXTT0=
EXTT1=
EXTT2=
EXTT3=
EXTT4=
EXTT5=
EXTT6=
EXTT7=
EXTT8=
EXTT9=
EXTT10=
EXTT11=
EXTT12=
EXTT13=
EXTT14=
PLAYORDER=
